<svg xmlns="http://www.w3.org/2000/svg" xmlns:xlink="http://www.w3.org/1999/xlink" width="600" height="400" viewBox="0 0 2400 1600">
<defs>
  <clipPath id="clip020">
    <rect x="0" y="0" width="2400" height="1600"></rect>
  </clipPath>
</defs>
<path clip-path="url(#clip020)" d="
M0 1600 L2400 1600 L2400 0 L0 0  Z
  " fill="#ffffff" fill-rule="evenodd" fill-opacity="1"></path>
<defs>
  <clipPath id="clip021">
    <rect x="480" y="0" width="1681" height="1600"></rect>
  </clipPath>
</defs>
<path clip-path="url(#clip020)" d="
M250.028 1423.18 L2352.76 1423.18 L2352.76 47.2441 L250.028 47.2441  Z
  " fill="#ffffff" fill-rule="evenodd" fill-opacity="1"></path>
<defs>
  <clipPath id="clip022">
    <rect x="250" y="47" width="2104" height="1377"></rect>
  </clipPath>
</defs>
<polyline clip-path="url(#clip022)" style="stroke:#000000; stroke-linecap:round; stroke-linejoin:round; stroke-width:2; stroke-opacity:0.1; fill:none" points="
  309.539,1423.18 309.539,47.2441 
  "></polyline>
<polyline clip-path="url(#clip022)" style="stroke:#000000; stroke-linecap:round; stroke-linejoin:round; stroke-width:2; stroke-opacity:0.1; fill:none" points="
  805.466,1423.18 805.466,47.2441 
  "></polyline>
<polyline clip-path="url(#clip022)" style="stroke:#000000; stroke-linecap:round; stroke-linejoin:round; stroke-width:2; stroke-opacity:0.1; fill:none" points="
  1301.39,1423.18 1301.39,47.2441 
  "></polyline>
<polyline clip-path="url(#clip022)" style="stroke:#000000; stroke-linecap:round; stroke-linejoin:round; stroke-width:2; stroke-opacity:0.1; fill:none" points="
  1797.32,1423.18 1797.32,47.2441 
  "></polyline>
<polyline clip-path="url(#clip022)" style="stroke:#000000; stroke-linecap:round; stroke-linejoin:round; stroke-width:2; stroke-opacity:0.1; fill:none" points="
  2293.24,1423.18 2293.24,47.2441 
  "></polyline>
<polyline clip-path="url(#clip020)" style="stroke:#000000; stroke-linecap:round; stroke-linejoin:round; stroke-width:4; stroke-opacity:1; fill:none" points="
  250.028,1423.18 2352.76,1423.18 
  "></polyline>
<polyline clip-path="url(#clip020)" style="stroke:#000000; stroke-linecap:round; stroke-linejoin:round; stroke-width:4; stroke-opacity:1; fill:none" points="
  309.539,1423.18 309.539,1404.28 
  "></polyline>
<polyline clip-path="url(#clip020)" style="stroke:#000000; stroke-linecap:round; stroke-linejoin:round; stroke-width:4; stroke-opacity:1; fill:none" points="
  805.466,1423.18 805.466,1404.28 
  "></polyline>
<polyline clip-path="url(#clip020)" style="stroke:#000000; stroke-linecap:round; stroke-linejoin:round; stroke-width:4; stroke-opacity:1; fill:none" points="
  1301.39,1423.18 1301.39,1404.28 
  "></polyline>
<polyline clip-path="url(#clip020)" style="stroke:#000000; stroke-linecap:round; stroke-linejoin:round; stroke-width:4; stroke-opacity:1; fill:none" points="
  1797.32,1423.18 1797.32,1404.28 
  "></polyline>
<polyline clip-path="url(#clip020)" style="stroke:#000000; stroke-linecap:round; stroke-linejoin:round; stroke-width:4; stroke-opacity:1; fill:none" points="
  2293.24,1423.18 2293.24,1404.28 
  "></polyline>
<path clip-path="url(#clip020)" d="M299.921 1481.64 L307.56 1481.64 L307.56 1455.28 L299.25 1456.95 L299.25 1452.69 L307.514 1451.02 L312.19 1451.02 L312.19 1481.64 L319.829 1481.64 L319.829 1485.58 L299.921 1485.58 L299.921 1481.64 Z" fill="#000000" fill-rule="evenodd" fill-opacity="1"></path><path clip-path="url(#clip020)" d="M800.118 1481.64 L816.438 1481.64 L816.438 1485.58 L794.494 1485.58 L794.494 1481.64 Q797.156 1478.89 801.739 1474.26 Q806.345 1469.61 807.526 1468.27 Q809.771 1465.74 810.651 1464.01 Q811.554 1462.25 811.554 1460.56 Q811.554 1457.8 809.609 1456.07 Q807.688 1454.33 804.586 1454.33 Q802.387 1454.33 799.933 1455.09 Q797.503 1455.86 794.725 1457.41 L794.725 1452.69 Q797.549 1451.55 800.003 1450.97 Q802.456 1450.39 804.493 1450.39 Q809.864 1450.39 813.058 1453.08 Q816.253 1455.77 816.253 1460.26 Q816.253 1462.39 815.442 1464.31 Q814.655 1466.2 812.549 1468.8 Q811.97 1469.47 808.868 1472.69 Q805.767 1475.88 800.118 1481.64 Z" fill="#000000" fill-rule="evenodd" fill-opacity="1"></path><path clip-path="url(#clip020)" d="M1305.64 1466.95 Q1309 1467.66 1310.87 1469.93 Q1312.77 1472.2 1312.77 1475.53 Q1312.77 1480.65 1309.25 1483.45 Q1305.73 1486.25 1299.25 1486.25 Q1297.07 1486.25 1294.76 1485.81 Q1292.47 1485.39 1290.01 1484.54 L1290.01 1480.02 Q1291.96 1481.16 1294.27 1481.74 Q1296.59 1482.32 1299.11 1482.32 Q1303.51 1482.32 1305.8 1480.58 Q1308.12 1478.84 1308.12 1475.53 Q1308.12 1472.48 1305.96 1470.77 Q1303.83 1469.03 1300.01 1469.03 L1295.99 1469.03 L1295.99 1465.19 L1300.2 1465.19 Q1303.65 1465.19 1305.48 1463.82 Q1307.31 1462.43 1307.31 1459.84 Q1307.31 1457.18 1305.41 1455.77 Q1303.53 1454.33 1300.01 1454.33 Q1298.09 1454.33 1295.89 1454.75 Q1293.7 1455.16 1291.06 1456.04 L1291.06 1451.88 Q1293.72 1451.14 1296.03 1450.77 Q1298.37 1450.39 1300.43 1450.39 Q1305.76 1450.39 1308.86 1452.83 Q1311.96 1455.23 1311.96 1459.35 Q1311.96 1462.22 1310.32 1464.21 Q1308.67 1466.18 1305.64 1466.95 Z" fill="#000000" fill-rule="evenodd" fill-opacity="1"></path><path clip-path="url(#clip020)" d="M1800.33 1455.09 L1788.52 1473.54 L1800.33 1473.54 L1800.33 1455.09 M1799.1 1451.02 L1804.98 1451.02 L1804.98 1473.54 L1809.91 1473.54 L1809.91 1477.43 L1804.98 1477.43 L1804.98 1485.58 L1800.33 1485.58 L1800.33 1477.43 L1784.73 1477.43 L1784.73 1472.92 L1799.1 1451.02 Z" fill="#000000" fill-rule="evenodd" fill-opacity="1"></path><path clip-path="url(#clip020)" d="M2283.52 1451.02 L2301.88 1451.02 L2301.88 1454.96 L2287.8 1454.96 L2287.8 1463.43 Q2288.82 1463.08 2289.84 1462.92 Q2290.86 1462.73 2291.88 1462.73 Q2297.67 1462.73 2301.05 1465.9 Q2304.43 1469.08 2304.43 1474.49 Q2304.43 1480.07 2300.95 1483.17 Q2297.48 1486.25 2291.16 1486.25 Q2288.99 1486.25 2286.72 1485.88 Q2284.47 1485.51 2282.06 1484.77 L2282.06 1480.07 Q2284.15 1481.2 2286.37 1481.76 Q2288.59 1482.32 2291.07 1482.32 Q2295.07 1482.32 2297.41 1480.21 Q2299.75 1478.1 2299.75 1474.49 Q2299.75 1470.88 2297.41 1468.77 Q2295.07 1466.67 2291.07 1466.67 Q2289.19 1466.67 2287.32 1467.08 Q2285.47 1467.5 2283.52 1468.38 L2283.52 1451.02 Z" fill="#000000" fill-rule="evenodd" fill-opacity="1"></path><path clip-path="url(#clip020)" d="M1239.74 1548.76 L1239.74 1551.62 L1212.81 1551.62 Q1213.2 1557.67 1216.44 1560.85 Q1219.72 1564 1225.54 1564 Q1228.92 1564 1232.07 1563.17 Q1235.25 1562.35 1238.37 1560.69 L1238.37 1566.23 Q1235.22 1567.57 1231.91 1568.27 Q1228.6 1568.97 1225.19 1568.97 Q1216.66 1568.97 1211.67 1564 Q1206.7 1559.04 1206.7 1550.57 Q1206.7 1541.82 1211.41 1536.69 Q1216.16 1531.54 1224.18 1531.54 Q1231.37 1531.54 1235.54 1536.18 Q1239.74 1540.8 1239.74 1548.76 M1233.88 1547.04 Q1233.82 1542.23 1231.18 1539.37 Q1228.57 1536.5 1224.24 1536.5 Q1219.34 1536.5 1216.38 1539.27 Q1213.45 1542.04 1213 1547.07 L1233.88 1547.04 Z" fill="#000000" fill-rule="evenodd" fill-opacity="1"></path><path clip-path="url(#clip020)" d="M1255.02 1562.7 L1255.02 1581.6 L1249.13 1581.6 L1249.13 1532.4 L1255.02 1532.4 L1255.02 1537.81 Q1256.86 1534.62 1259.66 1533.1 Q1262.5 1531.54 1266.41 1531.54 Q1272.91 1531.54 1276.95 1536.69 Q1281.02 1541.85 1281.02 1550.25 Q1281.02 1558.65 1276.95 1563.81 Q1272.91 1568.97 1266.41 1568.97 Q1262.5 1568.97 1259.66 1567.44 Q1256.86 1565.88 1255.02 1562.7 M1274.94 1550.25 Q1274.94 1543.79 1272.27 1540.13 Q1269.63 1536.44 1264.98 1536.44 Q1260.33 1536.44 1257.66 1540.13 Q1255.02 1543.79 1255.02 1550.25 Q1255.02 1556.71 1257.66 1560.4 Q1260.33 1564.07 1264.98 1564.07 Q1269.63 1564.07 1272.27 1560.4 Q1274.94 1556.71 1274.94 1550.25 Z" fill="#000000" fill-rule="evenodd" fill-opacity="1"></path><path clip-path="url(#clip020)" d="M1304.54 1536.5 Q1299.83 1536.5 1297.1 1540.19 Q1294.36 1543.85 1294.36 1550.25 Q1294.36 1556.65 1297.06 1560.34 Q1299.8 1564 1304.54 1564 Q1309.22 1564 1311.96 1560.31 Q1314.7 1556.62 1314.7 1550.25 Q1314.7 1543.92 1311.96 1540.23 Q1309.22 1536.5 1304.54 1536.5 M1304.54 1531.54 Q1312.18 1531.54 1316.54 1536.5 Q1320.9 1541.47 1320.9 1550.25 Q1320.9 1559 1316.54 1564 Q1312.18 1568.97 1304.54 1568.97 Q1296.87 1568.97 1292.51 1564 Q1288.18 1559 1288.18 1550.25 Q1288.18 1541.47 1292.51 1536.5 Q1296.87 1531.54 1304.54 1531.54 Z" fill="#000000" fill-rule="evenodd" fill-opacity="1"></path><path clip-path="url(#clip020)" d="M1356.26 1533.76 L1356.26 1539.24 Q1353.78 1537.87 1351.27 1537.2 Q1348.78 1536.5 1346.24 1536.5 Q1340.54 1536.5 1337.39 1540.13 Q1334.24 1543.73 1334.24 1550.25 Q1334.24 1556.78 1337.39 1560.4 Q1340.54 1564 1346.24 1564 Q1348.78 1564 1351.27 1563.33 Q1353.78 1562.63 1356.26 1561.26 L1356.26 1566.68 Q1353.81 1567.82 1351.17 1568.39 Q1348.56 1568.97 1345.6 1568.97 Q1337.55 1568.97 1332.81 1563.91 Q1328.06 1558.85 1328.06 1550.25 Q1328.06 1541.53 1332.84 1536.53 Q1337.64 1531.54 1345.98 1531.54 Q1348.69 1531.54 1351.27 1532.11 Q1353.85 1532.65 1356.26 1533.76 Z" fill="#000000" fill-rule="evenodd" fill-opacity="1"></path><path clip-path="url(#clip020)" d="M1396.08 1546.53 L1396.08 1568.04 L1390.23 1568.04 L1390.23 1546.72 Q1390.23 1541.66 1388.25 1539.14 Q1386.28 1536.63 1382.33 1536.63 Q1377.59 1536.63 1374.85 1539.65 Q1372.12 1542.68 1372.12 1547.9 L1372.12 1568.04 L1366.23 1568.04 L1366.23 1518.52 L1372.12 1518.52 L1372.12 1537.93 Q1374.22 1534.72 1377.05 1533.13 Q1379.91 1531.54 1383.64 1531.54 Q1389.78 1531.54 1392.93 1535.36 Q1396.08 1539.14 1396.08 1546.53 Z" fill="#000000" fill-rule="evenodd" fill-opacity="1"></path><polyline clip-path="url(#clip022)" style="stroke:#000000; stroke-linecap:round; stroke-linejoin:round; stroke-width:2; stroke-opacity:0.1; fill:none" points="
  250.028,1401.41 2352.76,1401.41 
  "></polyline>
<polyline clip-path="url(#clip022)" style="stroke:#000000; stroke-linecap:round; stroke-linejoin:round; stroke-width:2; stroke-opacity:0.1; fill:none" points="
  250.028,1156.04 2352.76,1156.04 
  "></polyline>
<polyline clip-path="url(#clip022)" style="stroke:#000000; stroke-linecap:round; stroke-linejoin:round; stroke-width:2; stroke-opacity:0.1; fill:none" points="
  250.028,910.658 2352.76,910.658 
  "></polyline>
<polyline clip-path="url(#clip022)" style="stroke:#000000; stroke-linecap:round; stroke-linejoin:round; stroke-width:2; stroke-opacity:0.1; fill:none" points="
  250.028,665.279 2352.76,665.279 
  "></polyline>
<polyline clip-path="url(#clip022)" style="stroke:#000000; stroke-linecap:round; stroke-linejoin:round; stroke-width:2; stroke-opacity:0.1; fill:none" points="
  250.028,419.901 2352.76,419.901 
  "></polyline>
<polyline clip-path="url(#clip022)" style="stroke:#000000; stroke-linecap:round; stroke-linejoin:round; stroke-width:2; stroke-opacity:0.1; fill:none" points="
  250.028,174.522 2352.76,174.522 
  "></polyline>
<polyline clip-path="url(#clip020)" style="stroke:#000000; stroke-linecap:round; stroke-linejoin:round; stroke-width:4; stroke-opacity:1; fill:none" points="
  250.028,1423.18 250.028,47.2441 
  "></polyline>
<polyline clip-path="url(#clip020)" style="stroke:#000000; stroke-linecap:round; stroke-linejoin:round; stroke-width:4; stroke-opacity:1; fill:none" points="
  250.028,1401.41 268.926,1401.41 
  "></polyline>
<polyline clip-path="url(#clip020)" style="stroke:#000000; stroke-linecap:round; stroke-linejoin:round; stroke-width:4; stroke-opacity:1; fill:none" points="
  250.028,1156.04 268.926,1156.04 
  "></polyline>
<polyline clip-path="url(#clip020)" style="stroke:#000000; stroke-linecap:round; stroke-linejoin:round; stroke-width:4; stroke-opacity:1; fill:none" points="
  250.028,910.658 268.926,910.658 
  "></polyline>
<polyline clip-path="url(#clip020)" style="stroke:#000000; stroke-linecap:round; stroke-linejoin:round; stroke-width:4; stroke-opacity:1; fill:none" points="
  250.028,665.279 268.926,665.279 
  "></polyline>
<polyline clip-path="url(#clip020)" style="stroke:#000000; stroke-linecap:round; stroke-linejoin:round; stroke-width:4; stroke-opacity:1; fill:none" points="
  250.028,419.901 268.926,419.901 
  "></polyline>
<polyline clip-path="url(#clip020)" style="stroke:#000000; stroke-linecap:round; stroke-linejoin:round; stroke-width:4; stroke-opacity:1; fill:none" points="
  250.028,174.522 268.926,174.522 
  "></polyline>
<path clip-path="url(#clip020)" d="M128.288 1387.21 Q124.677 1387.21 122.848 1390.78 Q121.043 1394.32 121.043 1401.45 Q121.043 1408.56 122.848 1412.12 Q124.677 1415.66 128.288 1415.66 Q131.922 1415.66 133.728 1412.12 Q135.556 1408.56 135.556 1401.45 Q135.556 1394.32 133.728 1390.78 Q131.922 1387.21 128.288 1387.21 M128.288 1383.51 Q134.098 1383.51 137.154 1388.12 Q140.232 1392.7 140.232 1401.45 Q140.232 1410.18 137.154 1414.78 Q134.098 1419.37 128.288 1419.37 Q122.478 1419.37 119.399 1414.78 Q116.343 1410.18 116.343 1401.45 Q116.343 1392.7 119.399 1388.12 Q122.478 1383.51 128.288 1383.51 Z" fill="#000000" fill-rule="evenodd" fill-opacity="1"></path><path clip-path="url(#clip020)" d="M148.45 1412.82 L153.334 1412.82 L153.334 1418.69 L148.45 1418.69 L148.45 1412.82 Z" fill="#000000" fill-rule="evenodd" fill-opacity="1"></path><path clip-path="url(#clip020)" d="M163.658 1417.98 L163.658 1413.72 Q165.417 1414.55 167.223 1414.99 Q169.028 1415.43 170.764 1415.43 Q175.394 1415.43 177.825 1412.33 Q180.278 1409.2 180.626 1402.86 Q179.283 1404.85 177.223 1405.92 Q175.163 1406.98 172.663 1406.98 Q167.477 1406.98 164.445 1403.86 Q161.436 1400.71 161.436 1395.27 Q161.436 1389.94 164.584 1386.73 Q167.732 1383.51 172.964 1383.51 Q178.959 1383.51 182.107 1388.12 Q185.278 1392.7 185.278 1401.45 Q185.278 1409.62 181.389 1414.5 Q177.524 1419.37 170.973 1419.37 Q169.214 1419.37 167.408 1419.02 Q165.602 1418.67 163.658 1417.98 M172.964 1403.32 Q176.112 1403.32 177.94 1401.17 Q179.792 1399.02 179.792 1395.27 Q179.792 1391.54 177.94 1389.39 Q176.112 1387.21 172.964 1387.21 Q169.815 1387.21 167.964 1389.39 Q166.135 1391.54 166.135 1395.27 Q166.135 1399.02 167.964 1401.17 Q169.815 1403.32 172.964 1403.32 Z" fill="#000000" fill-rule="evenodd" fill-opacity="1"></path><path clip-path="url(#clip020)" d="M197.709 1414.76 L214.028 1414.76 L214.028 1418.69 L192.084 1418.69 L192.084 1414.76 Q194.746 1412 199.329 1407.38 Q203.936 1402.72 205.116 1401.38 Q207.362 1398.86 208.241 1397.12 Q209.144 1395.36 209.144 1393.67 Q209.144 1390.92 207.199 1389.18 Q205.278 1387.44 202.176 1387.44 Q199.977 1387.44 197.524 1388.21 Q195.093 1388.97 192.315 1390.52 L192.315 1385.8 Q195.139 1384.67 197.593 1384.09 Q200.047 1383.51 202.084 1383.51 Q207.454 1383.51 210.649 1386.19 Q213.843 1388.88 213.843 1393.37 Q213.843 1395.5 213.033 1397.42 Q212.246 1399.32 210.139 1401.91 Q209.561 1402.58 206.459 1405.8 Q203.357 1409 197.709 1414.76 Z" fill="#000000" fill-rule="evenodd" fill-opacity="1"></path><path clip-path="url(#clip020)" d="M127.339 1141.83 Q123.728 1141.83 121.899 1145.4 Q120.093 1148.94 120.093 1156.07 Q120.093 1163.18 121.899 1166.74 Q123.728 1170.28 127.339 1170.28 Q130.973 1170.28 132.779 1166.74 Q134.607 1163.18 134.607 1156.07 Q134.607 1148.94 132.779 1145.4 Q130.973 1141.83 127.339 1141.83 M127.339 1138.13 Q133.149 1138.13 136.204 1142.74 Q139.283 1147.32 139.283 1156.07 Q139.283 1164.8 136.204 1169.4 Q133.149 1173.99 127.339 1173.99 Q121.529 1173.99 118.45 1169.4 Q115.394 1164.8 115.394 1156.07 Q115.394 1147.32 118.45 1142.74 Q121.529 1138.13 127.339 1138.13 Z" fill="#000000" fill-rule="evenodd" fill-opacity="1"></path><path clip-path="url(#clip020)" d="M147.501 1167.44 L152.385 1167.44 L152.385 1173.32 L147.501 1173.32 L147.501 1167.44 Z" fill="#000000" fill-rule="evenodd" fill-opacity="1"></path><path clip-path="url(#clip020)" d="M162.709 1172.6 L162.709 1168.34 Q164.468 1169.17 166.274 1169.61 Q168.079 1170.05 169.815 1170.05 Q174.445 1170.05 176.876 1166.95 Q179.329 1163.83 179.676 1157.48 Q178.334 1159.47 176.274 1160.54 Q174.214 1161.6 171.714 1161.6 Q166.528 1161.6 163.496 1158.48 Q160.487 1155.33 160.487 1149.89 Q160.487 1144.57 163.635 1141.35 Q166.783 1138.13 172.014 1138.13 Q178.01 1138.13 181.158 1142.74 Q184.329 1147.32 184.329 1156.07 Q184.329 1164.24 180.44 1169.13 Q176.575 1173.99 170.024 1173.99 Q168.264 1173.99 166.459 1173.64 Q164.653 1173.29 162.709 1172.6 M172.014 1157.95 Q175.163 1157.95 176.991 1155.79 Q178.843 1153.64 178.843 1149.89 Q178.843 1146.16 176.991 1144.01 Q175.163 1141.83 172.014 1141.83 Q168.866 1141.83 167.015 1144.01 Q165.186 1146.16 165.186 1149.89 Q165.186 1153.64 167.015 1155.79 Q168.866 1157.95 172.014 1157.95 Z" fill="#000000" fill-rule="evenodd" fill-opacity="1"></path><path clip-path="url(#clip020)" d="M206.899 1154.68 Q210.255 1155.4 212.13 1157.67 Q214.028 1159.94 214.028 1163.27 Q214.028 1168.39 210.51 1171.19 Q206.991 1173.99 200.51 1173.99 Q198.334 1173.99 196.019 1173.55 Q193.727 1173.13 191.274 1172.27 L191.274 1167.76 Q193.218 1168.89 195.533 1169.47 Q197.848 1170.05 200.371 1170.05 Q204.769 1170.05 207.061 1168.32 Q209.375 1166.58 209.375 1163.27 Q209.375 1160.21 207.223 1158.5 Q205.093 1156.77 201.274 1156.77 L197.246 1156.77 L197.246 1152.92 L201.459 1152.92 Q204.908 1152.92 206.737 1151.56 Q208.565 1150.17 208.565 1147.58 Q208.565 1144.91 206.667 1143.5 Q204.792 1142.07 201.274 1142.07 Q199.352 1142.07 197.153 1142.48 Q194.954 1142.9 192.315 1143.78 L192.315 1139.61 Q194.977 1138.87 197.292 1138.5 Q199.63 1138.13 201.69 1138.13 Q207.014 1138.13 210.116 1140.56 Q213.218 1142.97 213.218 1147.09 Q213.218 1149.96 211.574 1151.95 Q209.931 1153.92 206.899 1154.68 Z" fill="#000000" fill-rule="evenodd" fill-opacity="1"></path><path clip-path="url(#clip020)" d="M126.205 896.456 Q122.593 896.456 120.765 900.021 Q118.959 903.563 118.959 910.692 Q118.959 917.799 120.765 921.364 Q122.593 924.905 126.205 924.905 Q129.839 924.905 131.644 921.364 Q133.473 917.799 133.473 910.692 Q133.473 903.563 131.644 900.021 Q129.839 896.456 126.205 896.456 M126.205 892.753 Q132.015 892.753 135.07 897.359 Q138.149 901.942 138.149 910.692 Q138.149 919.419 135.07 924.026 Q132.015 928.609 126.205 928.609 Q120.394 928.609 117.316 924.026 Q114.26 919.419 114.26 910.692 Q114.26 901.942 117.316 897.359 Q120.394 892.753 126.205 892.753 Z" fill="#000000" fill-rule="evenodd" fill-opacity="1"></path><path clip-path="url(#clip020)" d="M146.366 922.058 L151.251 922.058 L151.251 927.938 L146.366 927.938 L146.366 922.058 Z" fill="#000000" fill-rule="evenodd" fill-opacity="1"></path><path clip-path="url(#clip020)" d="M161.575 927.22 L161.575 922.961 Q163.334 923.794 165.14 924.234 Q166.945 924.674 168.681 924.674 Q173.311 924.674 175.741 921.572 Q178.195 918.447 178.542 912.104 Q177.2 914.095 175.139 915.16 Q173.079 916.225 170.579 916.225 Q165.394 916.225 162.362 913.1 Q159.353 909.952 159.353 904.512 Q159.353 899.188 162.501 895.97 Q165.649 892.753 170.88 892.753 Q176.876 892.753 180.024 897.359 Q183.195 901.942 183.195 910.692 Q183.195 918.864 179.306 923.748 Q175.44 928.609 168.889 928.609 Q167.13 928.609 165.325 928.262 Q163.519 927.914 161.575 927.22 M170.88 912.567 Q174.028 912.567 175.857 910.415 Q177.709 908.262 177.709 904.512 Q177.709 900.785 175.857 898.632 Q174.028 896.456 170.88 896.456 Q167.732 896.456 165.88 898.632 Q164.052 900.785 164.052 904.512 Q164.052 908.262 165.88 910.415 Q167.732 912.567 170.88 912.567 Z" fill="#000000" fill-rule="evenodd" fill-opacity="1"></path><path clip-path="url(#clip020)" d="M204.445 897.452 L192.639 915.901 L204.445 915.901 L204.445 897.452 M203.218 893.378 L209.098 893.378 L209.098 915.901 L214.028 915.901 L214.028 919.79 L209.098 919.79 L209.098 927.938 L204.445 927.938 L204.445 919.79 L188.843 919.79 L188.843 915.276 L203.218 893.378 Z" fill="#000000" fill-rule="evenodd" fill-opacity="1"></path><path clip-path="url(#clip020)" d="M127.686 651.078 Q124.075 651.078 122.246 654.643 Q120.441 658.184 120.441 665.314 Q120.441 672.42 122.246 675.985 Q124.075 679.527 127.686 679.527 Q131.32 679.527 133.126 675.985 Q134.954 672.42 134.954 665.314 Q134.954 658.184 133.126 654.643 Q131.32 651.078 127.686 651.078 M127.686 647.374 Q133.496 647.374 136.552 651.981 Q139.63 656.564 139.63 665.314 Q139.63 674.041 136.552 678.647 Q133.496 683.23 127.686 683.23 Q121.876 683.23 118.797 678.647 Q115.742 674.041 115.742 665.314 Q115.742 656.564 118.797 651.981 Q121.876 647.374 127.686 647.374 Z" fill="#000000" fill-rule="evenodd" fill-opacity="1"></path><path clip-path="url(#clip020)" d="M147.848 676.679 L152.732 676.679 L152.732 682.559 L147.848 682.559 L147.848 676.679 Z" fill="#000000" fill-rule="evenodd" fill-opacity="1"></path><path clip-path="url(#clip020)" d="M163.056 681.841 L163.056 677.582 Q164.815 678.416 166.621 678.855 Q168.427 679.295 170.163 679.295 Q174.792 679.295 177.223 676.193 Q179.676 673.068 180.024 666.726 Q178.681 668.717 176.621 669.781 Q174.561 670.846 172.061 670.846 Q166.876 670.846 163.843 667.721 Q160.834 664.573 160.834 659.133 Q160.834 653.809 163.982 650.592 Q167.13 647.374 172.362 647.374 Q178.357 647.374 181.505 651.981 Q184.676 656.564 184.676 665.314 Q184.676 673.485 180.788 678.369 Q176.922 683.23 170.371 683.23 Q168.612 683.23 166.806 682.883 Q165.001 682.536 163.056 681.841 M172.362 667.189 Q175.51 667.189 177.339 665.036 Q179.19 662.883 179.19 659.133 Q179.19 655.406 177.339 653.254 Q175.51 651.078 172.362 651.078 Q169.214 651.078 167.362 653.254 Q165.533 655.406 165.533 659.133 Q165.533 662.883 167.362 665.036 Q169.214 667.189 172.362 667.189 Z" fill="#000000" fill-rule="evenodd" fill-opacity="1"></path><path clip-path="url(#clip020)" d="M193.125 647.999 L211.482 647.999 L211.482 651.934 L197.408 651.934 L197.408 660.406 Q198.426 660.059 199.445 659.897 Q200.463 659.712 201.482 659.712 Q207.269 659.712 210.649 662.883 Q214.028 666.055 214.028 671.471 Q214.028 677.05 210.556 680.152 Q207.084 683.23 200.764 683.23 Q198.588 683.23 196.32 682.86 Q194.075 682.49 191.667 681.749 L191.667 677.05 Q193.75 678.184 195.973 678.74 Q198.195 679.295 200.672 679.295 Q204.676 679.295 207.014 677.189 Q209.352 675.082 209.352 671.471 Q209.352 667.86 207.014 665.754 Q204.676 663.647 200.672 663.647 Q198.797 663.647 196.922 664.064 Q195.07 664.48 193.125 665.36 L193.125 647.999 Z" fill="#000000" fill-rule="evenodd" fill-opacity="1"></path><path clip-path="url(#clip020)" d="M126.529 405.699 Q122.918 405.699 121.089 409.264 Q119.283 412.806 119.283 419.935 Q119.283 427.042 121.089 430.606 Q122.918 434.148 126.529 434.148 Q130.163 434.148 131.968 430.606 Q133.797 427.042 133.797 419.935 Q133.797 412.806 131.968 409.264 Q130.163 405.699 126.529 405.699 M126.529 401.996 Q132.339 401.996 135.394 406.602 Q138.473 411.185 138.473 419.935 Q138.473 428.662 135.394 433.269 Q132.339 437.852 126.529 437.852 Q120.718 437.852 117.64 433.269 Q114.584 428.662 114.584 419.935 Q114.584 411.185 117.64 406.602 Q120.718 401.996 126.529 401.996 Z" fill="#000000" fill-rule="evenodd" fill-opacity="1"></path><path clip-path="url(#clip020)" d="M146.691 431.301 L151.575 431.301 L151.575 437.181 L146.691 437.181 L146.691 431.301 Z" fill="#000000" fill-rule="evenodd" fill-opacity="1"></path><path clip-path="url(#clip020)" d="M161.899 436.463 L161.899 432.204 Q163.658 433.037 165.464 433.477 Q167.269 433.917 169.005 433.917 Q173.635 433.917 176.065 430.815 Q178.519 427.69 178.866 421.347 Q177.524 423.338 175.464 424.403 Q173.403 425.468 170.903 425.468 Q165.718 425.468 162.686 422.343 Q159.677 419.195 159.677 413.755 Q159.677 408.431 162.825 405.213 Q165.973 401.996 171.204 401.996 Q177.2 401.996 180.348 406.602 Q183.519 411.185 183.519 419.935 Q183.519 428.106 179.63 432.991 Q175.764 437.852 169.214 437.852 Q167.454 437.852 165.649 437.505 Q163.843 437.157 161.899 436.463 M171.204 421.81 Q174.352 421.81 176.181 419.657 Q178.033 417.505 178.033 413.755 Q178.033 410.028 176.181 407.875 Q174.352 405.699 171.204 405.699 Q168.056 405.699 166.204 407.875 Q164.376 410.028 164.376 413.755 Q164.376 417.505 166.204 419.657 Q168.056 421.81 171.204 421.81 Z" fill="#000000" fill-rule="evenodd" fill-opacity="1"></path><path clip-path="url(#clip020)" d="M202.5 418.037 Q199.352 418.037 197.5 420.19 Q195.672 422.343 195.672 426.093 Q195.672 429.819 197.5 431.995 Q199.352 434.148 202.5 434.148 Q205.649 434.148 207.477 431.995 Q209.329 429.819 209.329 426.093 Q209.329 422.343 207.477 420.19 Q205.649 418.037 202.5 418.037 M211.783 403.384 L211.783 407.644 Q210.024 406.81 208.218 406.37 Q206.436 405.931 204.676 405.931 Q200.047 405.931 197.593 409.056 Q195.163 412.181 194.815 418.5 Q196.181 416.486 198.241 415.421 Q200.301 414.333 202.778 414.333 Q207.987 414.333 210.996 417.505 Q214.028 420.653 214.028 426.093 Q214.028 431.417 210.88 434.634 Q207.732 437.852 202.5 437.852 Q196.505 437.852 193.334 433.269 Q190.163 428.662 190.163 419.935 Q190.163 411.741 194.051 406.88 Q197.94 401.996 204.491 401.996 Q206.25 401.996 208.033 402.343 Q209.838 402.69 211.783 403.384 Z" fill="#000000" fill-rule="evenodd" fill-opacity="1"></path><path clip-path="url(#clip020)" d="M127.593 160.321 Q123.982 160.321 122.154 163.885 Q120.348 167.427 120.348 174.557 Q120.348 181.663 122.154 185.228 Q123.982 188.77 127.593 188.77 Q131.228 188.77 133.033 185.228 Q134.862 181.663 134.862 174.557 Q134.862 167.427 133.033 163.885 Q131.228 160.321 127.593 160.321 M127.593 156.617 Q133.404 156.617 136.459 161.223 Q139.538 165.807 139.538 174.557 Q139.538 183.283 136.459 187.89 Q133.404 192.473 127.593 192.473 Q121.783 192.473 118.705 187.89 Q115.649 183.283 115.649 174.557 Q115.649 165.807 118.705 161.223 Q121.783 156.617 127.593 156.617 Z" fill="#000000" fill-rule="evenodd" fill-opacity="1"></path><path clip-path="url(#clip020)" d="M147.755 185.922 L152.64 185.922 L152.64 191.802 L147.755 191.802 L147.755 185.922 Z" fill="#000000" fill-rule="evenodd" fill-opacity="1"></path><path clip-path="url(#clip020)" d="M162.964 191.084 L162.964 186.825 Q164.723 187.658 166.528 188.098 Q168.334 188.538 170.07 188.538 Q174.7 188.538 177.13 185.436 Q179.584 182.311 179.931 175.969 Q178.589 177.959 176.528 179.024 Q174.468 180.089 171.968 180.089 Q166.783 180.089 163.751 176.964 Q160.741 173.816 160.741 168.376 Q160.741 163.052 163.89 159.835 Q167.038 156.617 172.269 156.617 Q178.264 156.617 181.413 161.223 Q184.584 165.807 184.584 174.557 Q184.584 182.728 180.695 187.612 Q176.829 192.473 170.278 192.473 Q168.519 192.473 166.714 192.126 Q164.908 191.779 162.964 191.084 M172.269 176.432 Q175.417 176.432 177.246 174.279 Q179.098 172.126 179.098 168.376 Q179.098 164.649 177.246 162.497 Q175.417 160.321 172.269 160.321 Q169.121 160.321 167.269 162.497 Q165.44 164.649 165.44 168.376 Q165.44 172.126 167.269 174.279 Q169.121 176.432 172.269 176.432 Z" fill="#000000" fill-rule="evenodd" fill-opacity="1"></path><path clip-path="url(#clip020)" d="M191.806 157.242 L214.028 157.242 L214.028 159.233 L201.482 191.802 L196.598 191.802 L208.403 161.177 L191.806 161.177 L191.806 157.242 Z" fill="#000000" fill-rule="evenodd" fill-opacity="1"></path><path clip-path="url(#clip020)" d="M46.0847 860.903 Q46.0847 868.001 47.7079 870.738 Q49.3312 873.475 53.2461 873.475 Q56.3653 873.475 58.2114 871.438 Q60.0256 869.369 60.0256 865.836 Q60.0256 860.967 56.5881 858.038 Q53.1188 855.078 47.3897 855.078 L46.0847 855.078 L46.0847 860.903 M43.6657 849.222 L64.0042 849.222 L64.0042 855.078 L58.5933 855.078 Q61.8398 857.083 63.3994 860.075 Q64.9272 863.067 64.9272 867.396 Q64.9272 872.87 61.8716 876.117 Q58.7843 879.332 53.6281 879.332 Q47.6125 879.332 44.5569 875.321 Q41.5014 871.279 41.5014 863.29 L41.5014 855.078 L40.9285 855.078 Q36.8862 855.078 34.6901 857.752 Q32.4621 860.394 32.4621 865.2 Q32.4621 868.255 33.1941 871.152 Q33.9262 874.048 35.3903 876.722 L29.9795 876.722 Q28.7381 873.507 28.1334 870.483 Q27.4968 867.46 27.4968 864.595 Q27.4968 856.861 31.5072 853.041 Q35.5176 849.222 43.6657 849.222 Z" fill="#000000" fill-rule="evenodd" fill-opacity="1"></path><path clip-path="url(#clip020)" d="M29.7248 811.505 L35.1993 811.505 Q33.8307 813.988 33.1623 816.502 Q32.4621 818.985 32.4621 821.531 Q32.4621 827.228 36.0905 830.379 Q39.6872 833.53 46.212 833.53 Q52.7369 833.53 56.3653 830.379 Q59.9619 827.228 59.9619 821.531 Q59.9619 818.985 59.2935 816.502 Q58.5933 813.988 57.2247 811.505 L62.6355 811.505 Q63.7814 813.956 64.3543 816.598 Q64.9272 819.207 64.9272 822.168 Q64.9272 830.22 59.8664 834.963 Q54.8057 839.705 46.212 839.705 Q37.491 839.705 32.4939 834.931 Q27.4968 830.125 27.4968 821.786 Q27.4968 819.08 28.0697 816.502 Q28.6108 813.924 29.7248 811.505 Z" fill="#000000" fill-rule="evenodd" fill-opacity="1"></path><path clip-path="url(#clip020)" d="M29.7248 775.666 L35.1993 775.666 Q33.8307 778.149 33.1623 780.663 Q32.4621 783.146 32.4621 785.692 Q32.4621 791.389 36.0905 794.54 Q39.6872 797.691 46.212 797.691 Q52.7369 797.691 56.3653 794.54 Q59.9619 791.389 59.9619 785.692 Q59.9619 783.146 59.2935 780.663 Q58.5933 778.149 57.2247 775.666 L62.6355 775.666 Q63.7814 778.117 64.3543 780.759 Q64.9272 783.369 64.9272 786.329 Q64.9272 794.381 59.8664 799.124 Q54.8057 803.866 46.212 803.866 Q37.491 803.866 32.4939 799.092 Q27.4968 794.286 27.4968 785.947 Q27.4968 783.241 28.0697 780.663 Q28.6108 778.085 29.7248 775.666 Z" fill="#000000" fill-rule="evenodd" fill-opacity="1"></path><path clip-path="url(#clip020)" d="M49.9359 766.086 L28.3562 766.086 L28.3562 760.229 L49.7131 760.229 Q54.7739 760.229 57.3202 758.256 Q59.8346 756.282 59.8346 752.336 Q59.8346 747.593 56.8109 744.856 Q53.7872 742.087 48.5673 742.087 L28.3562 742.087 L28.3562 736.23 L64.0042 736.23 L64.0042 742.087 L58.5296 742.087 Q61.7762 744.219 63.3676 747.052 Q64.9272 749.853 64.9272 753.577 Q64.9272 759.72 61.1078 762.903 Q57.2883 766.086 49.9359 766.086 M27.4968 751.349 L27.4968 751.349 Z" fill="#000000" fill-rule="evenodd" fill-opacity="1"></path><path clip-path="url(#clip020)" d="M33.8307 703.511 Q33.2578 704.497 33.0032 705.675 Q32.7167 706.821 32.7167 708.221 Q32.7167 713.187 35.9632 715.86 Q39.1779 718.502 45.2253 718.502 L64.0042 718.502 L64.0042 724.39 L28.3562 724.39 L28.3562 718.502 L33.8944 718.502 Q30.6479 716.656 29.0883 713.696 Q27.4968 710.736 27.4968 706.503 Q27.4968 705.898 27.5923 705.166 Q27.656 704.434 27.8151 703.543 L33.8307 703.511 Z" fill="#000000" fill-rule="evenodd" fill-opacity="1"></path><path clip-path="url(#clip020)" d="M46.0847 681.167 Q46.0847 688.265 47.7079 691.002 Q49.3312 693.739 53.2461 693.739 Q56.3653 693.739 58.2114 691.702 Q60.0256 689.634 60.0256 686.101 Q60.0256 681.231 56.5881 678.303 Q53.1188 675.342 47.3897 675.342 L46.0847 675.342 L46.0847 681.167 M43.6657 669.486 L64.0042 669.486 L64.0042 675.342 L58.5933 675.342 Q61.8398 677.348 63.3994 680.34 Q64.9272 683.331 64.9272 687.66 Q64.9272 693.135 61.8716 696.381 Q58.7843 699.596 53.6281 699.596 Q47.6125 699.596 44.5569 695.585 Q41.5014 691.543 41.5014 683.554 L41.5014 675.342 L40.9285 675.342 Q36.8862 675.342 34.6901 678.016 Q32.4621 680.658 32.4621 685.464 Q32.4621 688.52 33.1941 691.416 Q33.9262 694.312 35.3903 696.986 L29.9795 696.986 Q28.7381 693.771 28.1334 690.748 Q27.4968 687.724 27.4968 684.859 Q27.4968 677.125 31.5072 673.305 Q35.5176 669.486 43.6657 669.486 Z" fill="#000000" fill-rule="evenodd" fill-opacity="1"></path><path clip-path="url(#clip020)" d="M29.7248 631.769 L35.1993 631.769 Q33.8307 634.252 33.1623 636.766 Q32.4621 639.249 32.4621 641.795 Q32.4621 647.493 36.0905 650.644 Q39.6872 653.795 46.212 653.795 Q52.7369 653.795 56.3653 650.644 Q59.9619 647.493 59.9619 641.795 Q59.9619 639.249 59.2935 636.766 Q58.5933 634.252 57.2247 631.769 L62.6355 631.769 Q63.7814 634.22 64.3543 636.862 Q64.9272 639.472 64.9272 642.432 Q64.9272 650.484 59.8664 655.227 Q54.8057 659.969 46.212 659.969 Q37.491 659.969 32.4939 655.195 Q27.4968 650.389 27.4968 642.05 Q27.4968 639.344 28.0697 636.766 Q28.6108 634.188 29.7248 631.769 Z" fill="#000000" fill-rule="evenodd" fill-opacity="1"></path><path clip-path="url(#clip020)" d="M67.3143 606.752 Q73.68 609.235 75.6216 611.59 Q77.5631 613.945 77.5631 617.892 L77.5631 622.571 L72.6615 622.571 L72.6615 619.133 Q72.6615 616.714 71.5157 615.378 Q70.3699 614.041 66.1048 612.417 L63.4312 611.367 L28.3562 625.785 L28.3562 619.579 L56.238 608.439 L28.3562 597.299 L28.3562 591.092 L67.3143 606.752 Z" fill="#000000" fill-rule="evenodd" fill-opacity="1"></path><polyline clip-path="url(#clip022)" style="stroke:#009af9; stroke-linecap:round; stroke-linejoin:round; stroke-width:4; stroke-opacity:1; fill:none" points="
  309.539,1384.24 805.466,724.17 1301.39,537.682 1797.32,238.32 2293.24,86.1857 
  "></polyline>
<path clip-path="url(#clip022)" d="M309.539 1400.24 L305.011 1388.77 L293.539 1384.24 L305.011 1379.71 L309.539 1368.24 L314.067 1379.71 L325.539 1384.24 L314.067 1388.77 L309.539 1400.24 Z" fill="#009af9" fill-rule="evenodd" fill-opacity="1" stroke="#000000" stroke-opacity="1" stroke-width="3.2"></path>
<path clip-path="url(#clip022)" d="M805.466 740.17 L800.938 728.698 L789.466 724.17 L800.938 719.642 L805.466 708.17 L809.994 719.642 L821.466 724.17 L809.994 728.698 L805.466 740.17 Z" fill="#009af9" fill-rule="evenodd" fill-opacity="1" stroke="#000000" stroke-opacity="1" stroke-width="3.2"></path>
<path clip-path="url(#clip022)" d="M1301.39 553.682 L1296.86 542.21 L1285.39 537.682 L1296.86 533.154 L1301.39 521.682 L1305.92 533.154 L1317.39 537.682 L1305.92 542.21 L1301.39 553.682 Z" fill="#009af9" fill-rule="evenodd" fill-opacity="1" stroke="#000000" stroke-opacity="1" stroke-width="3.2"></path>
<path clip-path="url(#clip022)" d="M1797.32 254.32 L1792.79 242.848 L1781.32 238.32 L1792.79 233.792 L1797.32 222.32 L1801.85 233.792 L1813.32 238.32 L1801.85 242.848 L1797.32 254.32 Z" fill="#009af9" fill-rule="evenodd" fill-opacity="1" stroke="#000000" stroke-opacity="1" stroke-width="3.2"></path>
<path clip-path="url(#clip022)" d="M2293.24 102.186 L2288.72 90.7137 L2277.24 86.1857 L2288.72 81.6577 L2293.24 70.1857 L2297.77 81.6577 L2309.24 86.1857 L2297.77 90.7137 L2293.24 102.186 Z" fill="#009af9" fill-rule="evenodd" fill-opacity="1" stroke="#000000" stroke-opacity="1" stroke-width="3.2"></path>
<path clip-path="url(#clip020)" d="
M1656.88 1377.32 L2282.66 1377.32 L2282.66 1273.64 L1656.88 1273.64  Z
  " fill="#ffffff" fill-rule="evenodd" fill-opacity="1"></path>
<polyline clip-path="url(#clip020)" style="stroke:#000000; stroke-linecap:round; stroke-linejoin:round; stroke-width:4; stroke-opacity:1; fill:none" points="
  1656.88,1377.32 2282.66,1377.32 2282.66,1273.64 1656.88,1273.64 1656.88,1377.32 
  "></polyline>
<polyline clip-path="url(#clip020)" style="stroke:#009af9; stroke-linecap:round; stroke-linejoin:round; stroke-width:4; stroke-opacity:1; fill:none" points="
  1680.24,1325.48 1820.42,1325.48 
  "></polyline>
<path clip-path="url(#clip020)" d="M1750.33 1347.11 L1744.21 1331.6 L1728.7 1325.48 L1744.21 1319.35 L1750.33 1303.84 L1756.45 1319.35 L1771.97 1325.48 L1756.45 1331.6 L1750.33 1347.11 Z" fill="#009af9" fill-rule="evenodd" fill-opacity="1" stroke="#000000" stroke-opacity="1" stroke-width="5.12"></path>
<path clip-path="url(#clip020)" d="M1851.19 1309.47 L1851.19 1316.83 L1859.97 1316.83 L1859.97 1320.14 L1851.19 1320.14 L1851.19 1334.21 Q1851.19 1337.38 1852.05 1338.29 Q1852.93 1339.19 1855.59 1339.19 L1859.97 1339.19 L1859.97 1342.76 L1855.59 1342.76 Q1850.66 1342.76 1848.79 1340.93 Q1846.91 1339.07 1846.91 1334.21 L1846.91 1320.14 L1843.79 1320.14 L1843.79 1316.83 L1846.91 1316.83 L1846.91 1309.47 L1851.19 1309.47 Z" fill="#000000" fill-rule="evenodd" fill-opacity="1"></path><path clip-path="url(#clip020)" d="M1887.75 1328.73 L1887.75 1330.81 L1868.16 1330.81 Q1868.44 1335.21 1870.8 1337.52 Q1873.19 1339.82 1877.42 1339.82 Q1879.87 1339.82 1882.17 1339.21 Q1884.48 1338.61 1886.75 1337.41 L1886.75 1341.44 Q1884.46 1342.41 1882.05 1342.92 Q1879.64 1343.43 1877.17 1343.43 Q1870.96 1343.43 1867.33 1339.82 Q1863.72 1336.2 1863.72 1330.05 Q1863.72 1323.68 1867.14 1319.95 Q1870.59 1316.2 1876.43 1316.2 Q1881.66 1316.2 1884.69 1319.58 Q1887.75 1322.94 1887.75 1328.73 M1883.49 1327.48 Q1883.44 1323.98 1881.52 1321.9 Q1879.62 1319.82 1876.47 1319.82 Q1872.91 1319.82 1870.75 1321.83 Q1868.62 1323.84 1868.3 1327.5 L1883.49 1327.48 Z" fill="#000000" fill-rule="evenodd" fill-opacity="1"></path><path clip-path="url(#clip020)" d="M1911.26 1317.59 L1911.26 1321.62 Q1909.46 1320.7 1907.51 1320.23 Q1905.57 1319.77 1903.49 1319.77 Q1900.31 1319.77 1898.72 1320.74 Q1897.14 1321.71 1897.14 1323.66 Q1897.14 1325.14 1898.28 1326 Q1899.41 1326.83 1902.84 1327.59 L1904.3 1327.92 Q1908.83 1328.89 1910.73 1330.67 Q1912.65 1332.43 1912.65 1335.6 Q1912.65 1339.21 1909.78 1341.32 Q1906.93 1343.43 1901.93 1343.43 Q1899.85 1343.43 1897.58 1343.01 Q1895.34 1342.62 1892.84 1341.81 L1892.84 1337.41 Q1895.2 1338.63 1897.49 1339.26 Q1899.78 1339.86 1902.03 1339.86 Q1905.04 1339.86 1906.66 1338.84 Q1908.28 1337.8 1908.28 1335.93 Q1908.28 1334.19 1907.1 1333.26 Q1905.94 1332.34 1901.98 1331.48 L1900.5 1331.14 Q1896.54 1330.3 1894.78 1328.59 Q1893.02 1326.85 1893.02 1323.84 Q1893.02 1320.19 1895.62 1318.2 Q1898.21 1316.2 1902.98 1316.2 Q1905.34 1316.2 1907.42 1316.55 Q1909.5 1316.9 1911.26 1317.59 Z" fill="#000000" fill-rule="evenodd" fill-opacity="1"></path><path clip-path="url(#clip020)" d="M1923.65 1309.47 L1923.65 1316.83 L1932.42 1316.83 L1932.42 1320.14 L1923.65 1320.14 L1923.65 1334.21 Q1923.65 1337.38 1924.5 1338.29 Q1925.38 1339.19 1928.05 1339.19 L1932.42 1339.19 L1932.42 1342.76 L1928.05 1342.76 Q1923.12 1342.76 1921.24 1340.93 Q1919.37 1339.07 1919.37 1334.21 L1919.37 1320.14 L1916.24 1320.14 L1916.24 1316.83 L1919.37 1316.83 L1919.37 1309.47 L1923.65 1309.47 Z" fill="#000000" fill-rule="evenodd" fill-opacity="1"></path><path clip-path="url(#clip020)" d="M1964.87 1329.72 Q1959.71 1329.72 1957.72 1330.9 Q1955.73 1332.08 1955.73 1334.93 Q1955.73 1337.2 1957.21 1338.54 Q1958.72 1339.86 1961.29 1339.86 Q1964.83 1339.86 1966.96 1337.36 Q1969.11 1334.84 1969.11 1330.67 L1969.11 1329.72 L1964.87 1329.72 M1973.37 1327.96 L1973.37 1342.76 L1969.11 1342.76 L1969.11 1338.82 Q1967.65 1341.18 1965.48 1342.32 Q1963.3 1343.43 1960.15 1343.43 Q1956.17 1343.43 1953.81 1341.2 Q1951.47 1338.96 1951.47 1335.21 Q1951.47 1330.83 1954.39 1328.61 Q1957.33 1326.39 1963.14 1326.39 L1969.11 1326.39 L1969.11 1325.97 Q1969.11 1323.03 1967.17 1321.44 Q1965.24 1319.82 1961.75 1319.82 Q1959.53 1319.82 1957.42 1320.35 Q1955.31 1320.88 1953.37 1321.95 L1953.37 1318.01 Q1955.71 1317.11 1957.91 1316.67 Q1960.11 1316.2 1962.19 1316.2 Q1967.81 1316.2 1970.59 1319.12 Q1973.37 1322.04 1973.37 1327.96 Z" fill="#000000" fill-rule="evenodd" fill-opacity="1"></path><path clip-path="url(#clip020)" d="M2000.8 1317.82 L2000.8 1321.81 Q1998.99 1320.81 1997.17 1320.32 Q1995.36 1319.82 1993.51 1319.82 Q1989.36 1319.82 1987.07 1322.45 Q1984.78 1325.07 1984.78 1329.82 Q1984.78 1334.56 1987.07 1337.2 Q1989.36 1339.82 1993.51 1339.82 Q1995.36 1339.82 1997.17 1339.33 Q1998.99 1338.82 2000.8 1337.82 L2000.8 1341.76 Q1999.02 1342.59 1997.1 1343.01 Q1995.2 1343.43 1993.05 1343.43 Q1987.19 1343.43 1983.74 1339.75 Q1980.29 1336.07 1980.29 1329.82 Q1980.29 1323.47 1983.76 1319.84 Q1987.26 1316.2 1993.32 1316.2 Q1995.29 1316.2 1997.17 1316.62 Q1999.04 1317.01 2000.8 1317.82 Z" fill="#000000" fill-rule="evenodd" fill-opacity="1"></path><path clip-path="url(#clip020)" d="M2026.86 1317.82 L2026.86 1321.81 Q2025.06 1320.81 2023.23 1320.32 Q2021.42 1319.82 2019.57 1319.82 Q2015.43 1319.82 2013.14 1322.45 Q2010.85 1325.07 2010.85 1329.82 Q2010.85 1334.56 2013.14 1337.2 Q2015.43 1339.82 2019.57 1339.82 Q2021.42 1339.82 2023.23 1339.33 Q2025.06 1338.82 2026.86 1337.82 L2026.86 1341.76 Q2025.08 1342.59 2023.16 1343.01 Q2021.26 1343.43 2019.11 1343.43 Q2013.25 1343.43 2009.8 1339.75 Q2006.36 1336.07 2006.36 1329.82 Q2006.36 1323.47 2009.83 1319.84 Q2013.32 1316.2 2019.39 1316.2 Q2021.36 1316.2 2023.23 1316.62 Q2025.11 1317.01 2026.86 1317.82 Z" fill="#000000" fill-rule="evenodd" fill-opacity="1"></path><path clip-path="url(#clip020)" d="M2033.83 1332.52 L2033.83 1316.83 L2038.09 1316.83 L2038.09 1332.36 Q2038.09 1336.04 2039.53 1337.89 Q2040.96 1339.72 2043.83 1339.72 Q2047.28 1339.72 2049.27 1337.52 Q2051.29 1335.32 2051.29 1331.53 L2051.29 1316.83 L2055.55 1316.83 L2055.55 1342.76 L2051.29 1342.76 L2051.29 1338.77 Q2049.73 1341.13 2047.67 1342.29 Q2045.64 1343.43 2042.93 1343.43 Q2038.46 1343.43 2036.15 1340.65 Q2033.83 1337.87 2033.83 1332.52 M2044.55 1316.2 L2044.55 1316.2 Z" fill="#000000" fill-rule="evenodd" fill-opacity="1"></path><path clip-path="url(#clip020)" d="M2079.34 1320.81 Q2078.62 1320.39 2077.77 1320.21 Q2076.93 1320 2075.92 1320 Q2072.3 1320 2070.36 1322.36 Q2068.44 1324.7 2068.44 1329.1 L2068.44 1342.76 L2064.16 1342.76 L2064.16 1316.83 L2068.44 1316.83 L2068.44 1320.86 Q2069.78 1318.5 2071.93 1317.36 Q2074.09 1316.2 2077.17 1316.2 Q2077.61 1316.2 2078.14 1316.27 Q2078.67 1316.32 2079.32 1316.44 L2079.34 1320.81 Z" fill="#000000" fill-rule="evenodd" fill-opacity="1"></path><path clip-path="url(#clip020)" d="M2095.59 1329.72 Q2090.43 1329.72 2088.44 1330.9 Q2086.45 1332.08 2086.45 1334.93 Q2086.45 1337.2 2087.93 1338.54 Q2089.43 1339.86 2092 1339.86 Q2095.54 1339.86 2097.67 1337.36 Q2099.83 1334.84 2099.83 1330.67 L2099.83 1329.72 L2095.59 1329.72 M2104.09 1327.96 L2104.09 1342.76 L2099.83 1342.76 L2099.83 1338.82 Q2098.37 1341.18 2096.19 1342.32 Q2094.02 1343.43 2090.87 1343.43 Q2086.89 1343.43 2084.53 1341.2 Q2082.19 1338.96 2082.19 1335.21 Q2082.19 1330.83 2085.11 1328.61 Q2088.04 1326.39 2093.86 1326.39 L2099.83 1326.39 L2099.83 1325.97 Q2099.83 1323.03 2097.88 1321.44 Q2095.96 1319.82 2092.47 1319.82 Q2090.24 1319.82 2088.14 1320.35 Q2086.03 1320.88 2084.09 1321.95 L2084.09 1318.01 Q2086.42 1317.11 2088.62 1316.67 Q2090.82 1316.2 2092.91 1316.2 Q2098.53 1316.2 2101.31 1319.12 Q2104.09 1322.04 2104.09 1327.96 Z" fill="#000000" fill-rule="evenodd" fill-opacity="1"></path><path clip-path="url(#clip020)" d="M2131.52 1317.82 L2131.52 1321.81 Q2129.71 1320.81 2127.88 1320.32 Q2126.08 1319.82 2124.23 1319.82 Q2120.08 1319.82 2117.79 1322.45 Q2115.5 1325.07 2115.5 1329.82 Q2115.5 1334.56 2117.79 1337.2 Q2120.08 1339.82 2124.23 1339.82 Q2126.08 1339.82 2127.88 1339.33 Q2129.71 1338.82 2131.52 1337.82 L2131.52 1341.76 Q2129.73 1342.59 2127.81 1343.01 Q2125.92 1343.43 2123.76 1343.43 Q2117.91 1343.43 2114.46 1339.75 Q2111.01 1336.07 2111.01 1329.82 Q2111.01 1323.47 2114.48 1319.84 Q2117.98 1316.2 2124.04 1316.2 Q2126.01 1316.2 2127.88 1316.62 Q2129.76 1317.01 2131.52 1317.82 Z" fill="#000000" fill-rule="evenodd" fill-opacity="1"></path><path clip-path="url(#clip020)" d="M2149.71 1345.16 Q2147.91 1349.79 2146.19 1351.2 Q2144.48 1352.62 2141.61 1352.62 L2138.21 1352.62 L2138.21 1349.05 L2140.71 1349.05 Q2142.47 1349.05 2143.44 1348.22 Q2144.41 1347.38 2145.59 1344.28 L2146.35 1342.34 L2135.87 1316.83 L2140.38 1316.83 L2148.48 1337.11 L2156.59 1316.83 L2161.1 1316.83 L2149.71 1345.16 Z" fill="#000000" fill-rule="evenodd" fill-opacity="1"></path><path clip-path="url(#clip020)" d="M2198.62 1326.55 Q2200.13 1327.06 2201.54 1328.73 Q2202.97 1330.39 2204.41 1333.31 L2209.16 1342.76 L2204.13 1342.76 L2199.71 1333.89 Q2198 1330.42 2196.38 1329.28 Q2194.78 1328.15 2192 1328.15 L2186.91 1328.15 L2186.91 1342.76 L2182.23 1342.76 L2182.23 1308.2 L2192.79 1308.2 Q2198.72 1308.2 2201.63 1310.67 Q2204.55 1313.15 2204.55 1318.15 Q2204.55 1321.41 2203.02 1323.57 Q2201.52 1325.72 2198.62 1326.55 M2186.91 1312.04 L2186.91 1324.31 L2192.79 1324.31 Q2196.17 1324.31 2197.88 1322.76 Q2199.62 1321.18 2199.62 1318.15 Q2199.62 1315.12 2197.88 1313.59 Q2196.17 1312.04 2192.79 1312.04 L2186.91 1312.04 Z" fill="#000000" fill-rule="evenodd" fill-opacity="1"></path><path clip-path="url(#clip020)" d="M2219.62 1338.82 L2235.94 1338.82 L2235.94 1342.76 L2213.99 1342.76 L2213.99 1338.82 Q2216.66 1336.07 2221.24 1331.44 Q2225.85 1326.78 2227.03 1325.44 Q2229.27 1322.92 2230.15 1321.18 Q2231.05 1319.42 2231.05 1317.73 Q2231.05 1314.98 2229.11 1313.24 Q2227.19 1311.51 2224.09 1311.51 Q2221.89 1311.51 2219.43 1312.27 Q2217 1313.03 2214.22 1314.58 L2214.22 1309.86 Q2217.05 1308.73 2219.5 1308.15 Q2221.96 1307.57 2223.99 1307.57 Q2229.36 1307.57 2232.56 1310.26 Q2235.75 1312.94 2235.75 1317.43 Q2235.75 1319.56 2234.94 1321.48 Q2234.16 1323.38 2232.05 1325.97 Q2231.47 1326.64 2228.37 1329.86 Q2225.27 1333.06 2219.62 1338.82 Z" fill="#000000" fill-rule="evenodd" fill-opacity="1"></path></svg>